<?xml version="1.0" standalone="no"?>
<svg xmlns:xlink="http://www.w3.org/1999/xlink" fill="#000000" width="512" height="512" viewBox="0 0 32 32" version="1.1" xmlns="http://www.w3.org/2000/svg">
<title fill="#000" style="">h</title>
<path d="M25.264 3.993h-0.928c-0.442 0-0.8 0.358-0.801 0.8v9.952h-15.038v-9.952c-0-0.442-0.358-0.8-0.8-0.8h-0.928c-0.442 0-0.8 0.358-0.8 0.8v22.4c0 0.442 0.358 0.8 0.8 0.801h0.928c0.442-0.001 0.8-0.359 0.8-0.801v0-9.952h15.038v9.952c0.001 0.442 0.359 0.8 0.801 0.801h0.928c0.442-0.001 0.8-0.359 0.801-0.801v-22.4c-0.001-0.442-0.359-0.8-0.801-0.8h-0z" fill="#8b0000" style=""/>
</svg>
