<?xml version="1.0" encoding="utf-8"?>
<!-- Generator: Adobe Illustrator 24.2.3, SVG Export Plug-In . SVG Version: 6.00 Build 0)  -->
<!DOCTYPE svg PUBLIC "-//W3C//DTD SVG 1.1//EN" "http://www.w3.org/Graphics/SVG/1.1/DTD/svg11.dtd" [
	<!ENTITY ns_extend "http://ns.adobe.com/Extensibility/1.0/">
	<!ENTITY ns_ai "http://ns.adobe.com/AdobeIllustrator/10.0/">
	<!ENTITY ns_graphs "http://ns.adobe.com/Graphs/1.0/">
	<!ENTITY ns_vars "http://ns.adobe.com/Variables/1.0/">
	<!ENTITY ns_imrep "http://ns.adobe.com/ImageReplacement/1.0/">
	<!ENTITY ns_sfw "http://ns.adobe.com/SaveForWeb/1.0/">
	<!ENTITY ns_custom "http://ns.adobe.com/GenericCustomNamespace/1.0/">
	<!ENTITY ns_adobe_xpath "http://ns.adobe.com/XPath/1.0/">
]>
<svg version="1.1" xmlns:x="&ns_extend;" xmlns:i="&ns_ai;" xmlns:graph="&ns_graphs;"
	 xmlns="http://www.w3.org/2000/svg" xmlns:xlink="http://www.w3.org/1999/xlink" x="0px" y="0px" width="750px" height="750px"
	 viewBox="0 0 750 750" style="enable-background:new 0 0 750 750;" xml:space="preserve">
<style type="text/css">
	.st0{fill:#FFFFFF;}
	.st1{fill:#000000;}
	.st2{fill:none;stroke:#000000;stroke-width:2;stroke-linecap:round;stroke-linejoin:round;stroke-miterlimit:10;}
	.st3{fill:none;stroke:#000000;stroke-width:2;stroke-linecap:round;stroke-linejoin:round;}
	.st4{fill:none;stroke:#000000;stroke-width:2;stroke-linecap:round;stroke-linejoin:round;stroke-dasharray:2.7568,4.5946;}
	.st5{fill:none;stroke:#000000;stroke-width:2.75;stroke-linecap:round;stroke-linejoin:round;}
	.st6{fill:none;stroke:#000000;stroke-width:2.75;stroke-linecap:round;stroke-linejoin:round;stroke-dasharray:2.7597,4.5995;}
	.st7{fill:none;stroke:#000000;stroke-width:2.75;stroke-linecap:round;stroke-linejoin:round;stroke-dasharray:2.5685,4.2808;}
	.st8{fill:none;stroke:#000000;stroke-width:2.75;stroke-linecap:round;stroke-linejoin:round;stroke-dasharray:3.0198,5.033;}
	.st9{fill:none;stroke:#000000;stroke-width:2.75;stroke-linecap:round;stroke-linejoin:round;stroke-dasharray:2.8674,4.779;}
	.st10{fill:none;stroke:#000000;stroke-width:2.75;stroke-linecap:round;stroke-linejoin:round;stroke-dasharray:2.5599,4.2665;}
	.st11{fill:none;stroke:#000000;stroke-width:2.75;stroke-linecap:round;stroke-linejoin:round;stroke-dasharray:2.6178,4.363;}
	.st12{fill:none;stroke:#000000;stroke-width:2.75;stroke-linecap:round;stroke-linejoin:round;stroke-dasharray:3.7295,6.2158;}
	.st13{fill:none;stroke:#000000;stroke-width:2.75;stroke-linecap:round;stroke-linejoin:round;stroke-dasharray:3.0102,5.017;}
	.st14{fill:none;stroke:#000000;stroke-width:2.75;stroke-linecap:round;stroke-linejoin:round;stroke-dasharray:2.7068,4.5113;}
	.st15{fill:none;stroke:#000000;stroke-width:2.75;stroke-linecap:round;stroke-linejoin:round;stroke-dasharray:3.0359,5.0598;}
	.st16{fill:none;stroke:#000000;stroke-width:2.75;stroke-linecap:round;stroke-linejoin:round;stroke-dasharray:2.9885,4.9808;}
	.st17{fill:none;stroke:#000000;stroke-width:2.75;stroke-linecap:round;stroke-linejoin:round;stroke-dasharray:3.0909,5.1515;}
	.st18{fill:none;stroke:#000000;stroke-width:2.75;stroke-linecap:round;stroke-linejoin:round;stroke-dasharray:3.0274,5.0456;}
	.st19{fill:none;stroke:#000000;stroke-width:2.75;stroke-linecap:round;stroke-linejoin:round;stroke-dasharray:3.0545,5.0908;}
	.st20{fill:none;stroke:#000000;stroke-width:2.75;stroke-linecap:round;stroke-linejoin:round;stroke-dasharray:2.5319,4.2199;}
	.st21{fill:none;stroke:#000000;stroke-width:2.75;stroke-linecap:round;stroke-linejoin:round;stroke-dasharray:2.978,4.9634;}
	.st22{fill:none;stroke:#000000;stroke-width:2.75;stroke-linecap:round;stroke-linejoin:round;stroke-dasharray:2.6095,4.3492;}
	.st23{fill:none;stroke:#000000;stroke-width:2.75;stroke-linecap:round;stroke-linejoin:round;stroke-dasharray:3.351,5.585;}
	.st24{fill:none;stroke:#000000;stroke-width:2.75;stroke-linecap:round;stroke-linejoin:round;stroke-dasharray:2.9899,4.9832;}
	.st25{fill:none;stroke:#000000;stroke-width:2.75;stroke-linecap:round;stroke-linejoin:round;stroke-dasharray:3.0031,5.0051;}
	.st26{fill:none;stroke:#000000;stroke-width:2.75;stroke-linecap:round;stroke-linejoin:round;stroke-dasharray:3.3413,5.5689;}
	.st27{fill:none;stroke:#000000;stroke-width:2.75;stroke-linecap:round;stroke-linejoin:round;stroke-dasharray:2.8536,4.756;}
	.st28{fill:none;stroke:#000000;stroke-width:2.75;stroke-linecap:round;stroke-linejoin:round;stroke-dasharray:2.996,4.9933;}
	.st29{fill:none;stroke:#000000;stroke-width:2.75;stroke-linecap:round;stroke-linejoin:round;stroke-dasharray:3.0073,5.0122;}
	.st30{fill:none;stroke:#000000;stroke-width:2.75;stroke-linecap:round;stroke-linejoin:round;stroke-dasharray:2.998,4.9967;}
	.st31{fill:none;stroke:#000000;stroke-width:2.75;stroke-linecap:round;stroke-linejoin:round;stroke-dasharray:3.011,5.0183;}
	.st32{fill:none;stroke:#000000;stroke-width:2.75;stroke-linecap:round;stroke-linejoin:round;stroke-dasharray:2.9895,4.9825;}
	.st33{fill:none;stroke:#000000;stroke-width:2.75;stroke-linecap:round;stroke-linejoin:round;stroke-dasharray:2.9869,4.9782;}
	.st34{fill:none;stroke:#000000;stroke-width:2.75;stroke-linecap:round;stroke-linejoin:round;stroke-dasharray:2.9998,4.9997;}
	.st35{fill:none;stroke:#000000;stroke-width:2.75;stroke-linecap:round;stroke-linejoin:round;stroke-dasharray:3.0095,5.0158;}
	.st36{fill:none;stroke:#000000;stroke-width:2.75;stroke-linecap:round;stroke-linejoin:round;stroke-dasharray:3.017,5.0283;}
	.st37{fill:none;stroke:#000000;stroke-width:2.75;stroke-linecap:round;stroke-linejoin:round;stroke-dasharray:2.9628,4.938;}
	.st38{fill:none;stroke:#000000;stroke-width:2.75;stroke-linecap:round;stroke-linejoin:round;stroke-dasharray:3.0158,5.0263;}
	.st39{fill:none;stroke:#000000;stroke-width:2.75;stroke-linecap:round;stroke-linejoin:round;stroke-dasharray:3.0721,5.1201;}
	.st40{fill:none;stroke:#000000;stroke-width:1.5;stroke-linecap:round;stroke-linejoin:round;stroke-miterlimit:10;}
	.st41{fill:none;stroke:#000000;stroke-width:2.75;stroke-linecap:round;stroke-linejoin:round;stroke-miterlimit:10;}
	.st42{fill:none;stroke:#000000;stroke-width:1.75;stroke-linecap:round;stroke-linejoin:round;stroke-miterlimit:10;}
	.st43{fill:none;stroke:#000000;stroke-width:2.25;stroke-linecap:round;stroke-linejoin:round;stroke-miterlimit:10;}
	.st44{fill:none;stroke:#000000;stroke-width:3.5;stroke-linecap:round;stroke-linejoin:round;stroke-miterlimit:10;}
	.st45{fill:none;stroke:#000000;stroke-width:3.25;stroke-linecap:round;stroke-linejoin:round;stroke-miterlimit:10;}
	.st46{fill:none;stroke:#000000;stroke-width:3;stroke-linecap:round;stroke-linejoin:round;stroke-miterlimit:10;}
</style>
<metadata>
	<sfw  xmlns="&ns_sfw;">
		<slices></slices>
		<sliceSourceBounds  bottomLeftOrigin="true" height="3047.54" width="7220" x="-5235" y="-120"></sliceSourceBounds>
	</sfw>
</metadata>
<g id="FILL-BACKGROUND">
	<rect class="st0" width="750" height="750"/>
</g>
<g id="N-TEXT">
</g>
<g id="N-DIMENSIONS">
</g>
<g id="AG-DETAIL-DIAGRAM">
</g>
<g id="AG-DIAGRAM">
	<g id="POLYLINE_233_">
		<g>
			<g>
				<line class="st5" x1="72.76" y1="484.78" x2="74.26" y2="484.78"/>
				<line class="st30" x1="79.26" y1="484.78" x2="676.36" y2="484.78"/>
				<line class="st5" x1="678.86" y1="484.78" x2="680.36" y2="484.78"/>
			</g>
		</g>
	</g>
</g>
<g id="AG-DETAILS">
	<g id="POLYLINE_1302_">
		<polygon class="st2" points="414.97,353.06 438.97,354.25 439.31,358.75 415.31,357.56 		"/>
	</g>
	<g id="POLYLINE_1301_">
		<polygon class="st2" points="292.57,346.96 316.57,348.16 316.91,352.66 292.91,351.46 		"/>
	</g>
	<g id="POLYLINE_1300_">
		<polyline class="st2" points="153.77,365.78 126.3,365.78 126.3,382.14 141.98,382.14 		"/>
	</g>
	<g id="POLYLINE_1299_">
		<polygon class="st2" points="581.96,437.39 587.33,444.12 595.94,444.12 601.31,437.39 599.39,429 591.63,425.26 583.87,429 		"/>
	</g>
	<g id="POLYLINE_1298_">
		<polygon class="st2" points="185.69,437.39 191.06,444.12 199.67,444.12 205.04,437.39 203.12,429 195.36,425.26 187.61,429 		"/>
	</g>
</g>
<g id="AG-TRANSPORT">
	<g id="POLYLINE_237_">
		<line class="st41" x1="399.85" y1="295.31" x2="409.24" y2="339.64"/>
	</g>
	<g id="POLYLINE_238_">
		<line class="st41" x1="561.4" y1="379.33" x2="554.51" y2="366.17"/>
	</g>
	<g id="POLYLINE_239_">
		<line class="st41" x1="622.01" y1="381.13" x2="628.6" y2="368.36"/>
	</g>
	<g id="POLYLINE_240_">
		<polyline class="st41" points="126.09,406.09 84.5,402.31 73.07,333.47 419.19,286.52 652.59,362.31 		"/>
	</g>
	<g id="POLYLINE_241_">
		<line class="st41" x1="652.59" y1="362.31" x2="684.36" y2="370.89"/>
	</g>
	<g id="POLYLINE_242_">
		<line class="st41" x1="684.36" y1="370.89" x2="683.71" y2="376.33"/>
	</g>
	<g id="POLYLINE_243_">
		<line class="st41" x1="652.59" y1="367.92" x2="685.57" y2="376.83"/>
	</g>
	<g id="POLYLINE_244_">
		<line class="st41" x1="682.21" y1="405.01" x2="679.88" y2="410.22"/>
	</g>
	<g id="POLYLINE_245_">
		<polyline class="st41" points="652.59,405.01 628.6,368.36 554.51,366.17 520.76,418.08 520.76,435.18 		"/>
	</g>
	<g id="POLYLINE_246_">
		<line class="st41" x1="652.39" y1="405.01" x2="643.99" y2="410.22"/>
	</g>
	<g id="POLYLINE_247_">
		<line class="st41" x1="652.59" y1="362.31" x2="652.59" y2="405.01"/>
	</g>
	<g id="POLYLINE_248_">
		<polyline class="st41" points="652.39,405.01 682.21,405.01 685.57,376.83 		"/>
	</g>
	<g id="POLYLINE_249_">
		<line class="st41" x1="643.99" y1="420.21" x2="681.35" y2="420.21"/>
	</g>
	<g id="POLYLINE_250_">
		<polyline class="st41" points="643.99,410.22 685.57,410.22 677.12,430.43 643.99,436.21 		"/>
	</g>
	<g id="POLYLINE_251_">
		<polyline class="st41" points="517.01,345.74 595.5,350.19 418.63,292.76 287.31,310.57 		"/>
	</g>
	<g id="POLYLINE_252_">
		<line class="st41" x1="283.9" y1="332.53" x2="517.01" y2="345.74"/>
	</g>
	<g id="POLYLINE_253_">
		<line class="st41" x1="494.88" y1="317.52" x2="505.22" y2="345.1"/>
	</g>
	<g id="POLYLINE_254_">
		<line class="st41" x1="508.03" y1="321.79" x2="520.76" y2="355.75"/>
	</g>
	<g id="POLYLINE_255_">
		<line class="st41" x1="520.76" y1="418.08" x2="520.76" y2="355.75"/>
	</g>
	<g id="POLYLINE_256_">
		<line class="st41" x1="520.76" y1="418.08" x2="533.71" y2="421.92"/>
	</g>
	<g id="POLYLINE_257_">
		<line class="st41" x1="263" y1="411.82" x2="520.76" y2="418.08"/>
	</g>
	<g id="POLYLINE_258_">
		<line class="st41" x1="639.95" y1="423.95" x2="643.99" y2="423.21"/>
	</g>
	<g id="POLYLINE_259_">
		<line class="st41" x1="533.71" y1="443.42" x2="542.48" y2="441.82"/>
	</g>
	<g id="POLYLINE_260_">
		<line class="st41" x1="250.05" y1="435.18" x2="533.71" y2="435.18"/>
	</g>
	<g id="POLYLINE_261_">
		<line class="st41" x1="250.05" y1="448.09" x2="533.71" y2="448.09"/>
	</g>
	<g id="POLYLINE_262_">
		<line class="st41" x1="533.71" y1="435.18" x2="533.71" y2="448.09"/>
	</g>
	<g id="POLYLINE_263_">
		<polyline class="st41" points="643.99,436.21 643.99,410.22 622.01,381.13 561.4,379.33 533.71,421.92 533.71,435.18 		"/>
	</g>
	<g id="POLYLINE_264_">
		<line class="st41" x1="244.45" y1="442.31" x2="250.05" y2="443.12"/>
	</g>
	<g id="POLYLINE_265_">
		<line class="st41" x1="139.04" y1="426.96" x2="146.28" y2="428.01"/>
	</g>
	<g id="POLYLINE_266_">
		<polyline class="st41" points="250.05,448.09 250.05,416.13 222.08,378.73 160.4,378.73 139.04,408.36 139.04,439.62 		"/>
	</g>
	<g id="POLYLINE_267_">
		<polyline class="st41" points="126.09,439.62 82.79,422.6 80.3,409.35 126.09,413.51 		"/>
	</g>
	<g id="POLYLINE_268_">
		<polyline class="st41" points="263,435.18 263,411.82 228.57,365.78 153.77,365.78 126.09,404.17 126.09,439.62 		"/>
	</g>
	<g id="POLYLINE_269_">
		<line class="st41" x1="93.69" y1="403.14" x2="93.69" y2="410.56"/>
	</g>
	<g id="POLYLINE_272_">
		<polyline class="st41" points="393.63,296.15 404.54,349.96 412.05,435.18 		"/>
	</g>
	<g id="POLYLINE_273_">
		<line class="st41" x1="282.14" y1="343.87" x2="290.84" y2="435.18"/>
	</g>
	<g id="POLYLINE_274_">
		<line class="st41" x1="294.11" y1="309.65" x2="294.03" y2="333.11"/>
	</g>
	<g id="POLYLINE_276_">
		<line class="st41" x1="126.09" y1="439.62" x2="139.04" y2="439.62"/>
	</g>
	<g id="POLYLINE_277_">
		<line class="st41" x1="250.05" y1="416.13" x2="263" y2="411.82"/>
	</g>
	<g id="POLYLINE_278_">
		<line class="st41" x1="126.09" y1="404.17" x2="139.04" y2="408.36"/>
	</g>
	<g id="POLYLINE_279_">
		<line class="st41" x1="222.08" y1="378.73" x2="228.57" y2="365.78"/>
	</g>
	<g id="POLYLINE_280_">
		<line class="st41" x1="160.4" y1="378.73" x2="153.77" y2="365.78"/>
	</g>
	<g id="POLYLINE_281_">
		<line class="st41" x1="388.28" y1="296.88" x2="393.78" y2="338.76"/>
	</g>
	<g id="POLYLINE_282_">
		<line class="st41" x1="287.31" y1="310.57" x2="286.49" y2="304.52"/>
	</g>
	<g id="POLYLINE_283_">
		<line class="st41" x1="287.31" y1="310.57" x2="282.14" y2="343.87"/>
	</g>
	<g id="POLYLINE_284_">
		<line class="st41" x1="568.15" y1="459.27" x2="587.44" y2="468.55"/>
	</g>
	<g id="POLYLINE_285_">
		<line class="st41" x1="558.16" y1="431.84" x2="562.93" y2="452.71"/>
	</g>
	<g id="POLYLINE_286_">
		<line class="st41" x1="595.82" y1="468.55" x2="615.11" y2="459.27"/>
	</g>
	<g id="POLYLINE_287_">
		<line class="st41" x1="620.34" y1="452.71" x2="625.1" y2="431.84"/>
	</g>
	<g id="POLYLINE_288_">
		<line class="st41" x1="623.23" y1="423.67" x2="609.89" y2="406.94"/>
	</g>
	<g id="POLYLINE_289_">
		<line class="st41" x1="602.33" y1="403.3" x2="580.93" y2="403.3"/>
	</g>
	<g id="POLYLINE_290_">
		<line class="st41" x1="573.38" y1="406.94" x2="560.03" y2="423.67"/>
	</g>
	<g id="POLYLINE_291_">
		
			<rect x="556.53" y="448.25" transform="matrix(0.7818 -0.6235 0.6235 0.7818 -157.734 454.0946)" class="st41" width="26.93" height="8.38"/>
	</g>
	<g id="POLYLINE_292_">
		
			<rect x="560.46" y="415.56" transform="matrix(0.2225 -0.9749 0.9749 0.2225 20.7373 884.0547)" class="st41" width="8.38" height="26.93"/>
	</g>
	<g id="POLYLINE_293_">
		
			<rect x="575.43" y="396.79" transform="matrix(0.901 -0.4339 0.4339 0.901 -120.6005 292.1176)" class="st41" width="8.38" height="26.93"/>
	</g>
	<g id="POLYLINE_294_">
		
			<rect x="590.17" y="406.06" transform="matrix(0.4339 -0.901 0.901 0.4339 -27.8946 776.1091)" class="st41" width="26.93" height="8.38"/>
	</g>
	<g id="POLYLINE_295_">
		
			<rect x="605.14" y="424.83" transform="matrix(0.9749 -0.2225 0.2225 0.9749 -79.9573 148.4102)" class="st41" width="26.93" height="8.38"/>
	</g>
	<g id="POLYLINE_296_">
		
			<rect x="609.08" y="438.97" transform="matrix(0.6235 -0.7818 0.7818 0.6235 -122.8279 649.8176)" class="st41" width="8.38" height="26.93"/>
	</g>
	<g id="POLYLINE_297_">
		<rect x="587.44" y="449.39" class="st41" width="8.38" height="26.93"/>
	</g>
	<g id="POLYLINE_298_">
		<polygon class="st41" points="576.26,438.69 584.79,449.39 598.47,449.39 607,438.69 603.96,425.35 591.63,419.42 579.3,425.35 		
			"/>
	</g>
	<g id="POLYLINE_300_">
		<polygon class="st41" points="641.23,435.18 641.23,434.32 641.2,433.46 641.17,432.59 641.11,431.73 641.05,430.87 
			640.96,430.01 640.87,429.15 640.75,428.3 640.63,427.44 640.48,426.59 640.33,425.74 640.16,424.9 639.97,424.06 639.77,423.22 
			639.55,422.38 639.32,421.55 639.08,420.72 638.82,419.9 638.55,419.08 638.26,418.26 637.96,417.45 637.64,416.65 637.31,415.85 
			636.97,415.06 636.61,414.27 636.24,413.5 635.86,412.72 635.46,411.96 635.05,411.2 634.62,410.44 634.19,409.7 633.74,408.96 
			633.27,408.23 632.8,407.51 632.31,406.8 631.81,406.1 631.3,405.4 630.77,404.72 630.24,404.04 629.69,403.37 629.13,402.72 
			628.56,402.07 627.98,401.43 627.39,400.8 626.78,400.19 626.17,399.58 625.54,398.98 624.91,398.4 624.26,397.83 623.61,397.26 
			622.94,396.71 622.27,396.17 621.58,395.65 620.89,395.13 620.19,394.63 619.48,394.14 618.76,393.66 618.03,393.19 617.3,392.74 
			616.56,392.3 615.81,391.87 615.05,391.46 614.28,391.06 613.51,390.67 612.74,390.29 611.95,389.93 611.16,389.59 610.36,389.25 
			609.56,388.94 608.75,388.63 607.94,388.34 607.12,388.06 606.3,387.8 605.47,387.55 604.64,387.32 603.81,387.1 602.97,386.89 
			602.13,386.7 601.28,386.53 600.43,386.37 599.58,386.22 598.73,386.09 597.87,385.98 597.02,385.87 596.16,385.79 595.3,385.72 
			594.44,385.66 593.57,385.62 592.71,385.59 591.85,385.58 590.98,385.59 590.12,385.6 589.26,385.64 588.4,385.69 587.54,385.75 
			586.68,385.83 585.82,385.92 584.96,386.03 584.11,386.16 583.25,386.29 582.4,386.45 581.56,386.61 580.71,386.8 579.87,386.99 
			579.04,387.21 578.2,387.43 577.37,387.67 576.55,387.93 575.73,388.2 574.91,388.48 574.1,388.78 573.3,389.09 572.5,389.42 
			571.71,389.76 570.92,390.11 570.14,390.48 569.36,390.86 568.6,391.26 567.83,391.66 567.08,392.08 566.33,392.52 565.6,392.96 
			564.86,393.42 564.14,393.9 563.43,394.38 562.72,394.88 562.02,395.39 561.34,395.91 560.66,396.44 559.99,396.99 559.33,397.54 
			558.68,398.11 558.04,398.69 557.41,399.28 556.79,399.88 556.18,400.49 555.58,401.12 554.99,401.75 554.42,402.39 
			553.85,403.04 553.3,403.71 552.76,404.38 552.23,405.06 551.71,405.75 551.2,406.45 550.71,407.16 550.23,407.87 549.76,408.6 
			549.3,409.33 548.86,410.07 548.43,410.82 548.01,411.58 547.6,412.34 547.21,413.11 546.84,413.88 546.47,414.67 546.12,415.46 
			545.78,416.25 545.46,417.05 545.15,417.86 544.86,418.67 544.58,419.49 544.31,420.31 544.06,421.13 543.82,421.96 543.6,422.8 
			543.39,423.64 543.2,424.48 543.02,425.32 542.86,426.17 542.71,427.02 542.57,427.87 542.45,428.73 542.35,429.58 542.26,430.44 
			542.18,431.3 542.12,432.16 542.08,433.03 542.05,433.89 542.03,434.75 542.03,435.61 542.05,436.48 542.08,437.34 542.12,438.2 
			542.18,439.06 542.26,439.92 542.35,440.78 542.45,441.64 542.57,442.49 542.71,443.35 542.86,444.2 543.02,445.05 543.2,445.89 
			543.39,446.73 543.6,447.57 543.82,448.4 544.06,449.23 544.31,450.06 544.58,450.88 544.86,451.7 545.15,452.51 545.46,453.31 
			545.78,454.11 546.12,454.91 546.47,455.7 546.84,456.48 547.21,457.26 547.6,458.03 548.01,458.79 548.43,459.55 548.86,460.29 
			549.3,461.04 549.76,461.77 550.23,462.49 550.71,463.21 551.2,463.92 551.71,464.62 552.23,465.31 552.76,465.99 553.3,466.66 
			553.85,467.32 554.42,467.98 554.99,468.62 555.58,469.25 556.18,469.87 556.79,470.48 557.41,471.09 558.04,471.68 
			558.68,472.26 559.33,472.82 559.99,473.38 560.66,473.92 561.34,474.46 562.02,474.98 562.72,475.49 563.43,475.99 
			564.14,476.47 564.86,476.94 565.6,477.4 566.33,477.85 567.08,478.28 567.83,478.7 568.6,479.11 569.36,479.51 570.14,479.89 
			570.92,480.25 571.71,480.61 572.5,480.95 573.3,481.27 574.1,481.59 574.91,481.88 575.73,482.17 576.55,482.44 577.37,482.69 
			578.2,482.93 579.04,483.16 579.87,483.37 580.71,483.57 581.56,483.75 582.4,483.92 583.25,484.07 584.11,484.21 584.96,484.33 
			585.82,484.44 586.68,484.54 587.54,484.62 588.4,484.68 589.26,484.73 590.12,484.76 590.98,484.78 591.85,484.78 592.71,484.77 
			593.57,484.75 594.44,484.71 595.3,484.65 596.16,484.58 597.02,484.49 597.87,484.39 598.73,484.27 599.58,484.14 600.43,484 
			601.28,483.84 602.13,483.66 602.97,483.47 603.81,483.27 604.64,483.05 605.47,482.81 606.3,482.57 607.12,482.3 607.94,482.03 
			608.75,481.74 609.56,481.43 610.36,481.11 611.16,480.78 611.95,480.43 612.74,480.07 613.51,479.7 614.28,479.31 615.05,478.91 
			615.81,478.49 616.56,478.07 617.3,477.63 618.03,477.17 618.76,476.71 619.48,476.23 620.19,475.74 620.89,475.24 621.58,474.72 
			622.27,474.19 622.94,473.65 623.61,473.1 624.26,472.54 624.91,471.97 625.54,471.38 626.17,470.79 626.78,470.18 627.39,469.56 
			627.98,468.94 628.56,468.3 629.13,467.65 629.69,466.99 630.24,466.33 630.77,465.65 631.3,464.96 631.81,464.27 632.31,463.56 
			632.8,462.85 633.27,462.13 633.74,461.4 634.19,460.67 634.62,459.92 635.05,459.17 635.46,458.41 635.86,457.64 636.24,456.87 
			636.61,456.09 636.97,455.31 637.31,454.51 637.64,453.72 637.96,452.91 638.26,452.1 638.55,451.29 638.82,450.47 639.08,449.65 
			639.32,448.82 639.55,447.99 639.77,447.15 639.97,446.31 640.16,445.47 640.33,444.62 640.48,443.77 640.63,442.92 
			640.75,442.07 640.87,441.21 640.96,440.35 641.05,439.49 641.11,438.63 641.17,437.77 641.2,436.91 641.23,436.05 		"/>
	</g>
	<g id="POLYLINE_301_">
		<line class="st41" x1="73.07" y1="333.47" x2="652.59" y2="362.31"/>
	</g>
	<g id="POLYLINE_302_">
		<line class="st41" x1="171.89" y1="459.27" x2="191.17" y2="468.55"/>
	</g>
	<g id="POLYLINE_303_">
		<line class="st41" x1="161.9" y1="431.84" x2="166.66" y2="452.71"/>
	</g>
	<g id="POLYLINE_304_">
		<line class="st41" x1="199.56" y1="468.55" x2="218.84" y2="459.27"/>
	</g>
	<g id="POLYLINE_305_">
		<line class="st41" x1="224.07" y1="452.71" x2="228.83" y2="431.84"/>
	</g>
	<g id="POLYLINE_306_">
		<line class="st41" x1="226.97" y1="423.67" x2="213.62" y2="406.94"/>
	</g>
	<g id="POLYLINE_307_">
		<line class="st41" x1="206.07" y1="403.3" x2="184.66" y2="403.3"/>
	</g>
	<g id="POLYLINE_308_">
		<line class="st41" x1="177.11" y1="406.94" x2="163.76" y2="423.67"/>
	</g>
	<g id="POLYLINE_309_">
		
			<rect x="160.26" y="448.25" transform="matrix(0.7818 -0.6235 0.6235 0.7818 -244.1869 207.0264)" class="st41" width="26.93" height="8.38"/>
	</g>
	<g id="POLYLINE_310_">
		
			<rect x="164.2" y="415.56" transform="matrix(0.2225 -0.9749 0.9749 0.2225 -287.3517 497.7233)" class="st41" width="8.38" height="26.93"/>
	</g>
	<g id="POLYLINE_311_">
		
			<rect x="179.17" y="396.79" transform="matrix(0.901 -0.4339 0.4339 0.901 -159.8433 120.1839)" class="st41" width="8.38" height="26.93"/>
	</g>
	<g id="POLYLINE_312_">
		
			<rect x="193.91" y="406.06" transform="matrix(0.4339 -0.901 0.901 0.4339 -252.2277 419.0851)" class="st41" width="26.93" height="8.38"/>
	</g>
	<g id="POLYLINE_313_">
		
			<rect x="208.88" y="424.83" transform="matrix(0.9749 -0.2225 0.2225 0.9749 -89.8926 60.2325)" class="st41" width="26.93" height="8.38"/>
	</g>
	<g id="POLYLINE_314_">
		
			<rect x="212.81" y="438.97" transform="matrix(0.6235 -0.7818 0.7818 0.6235 -272.0263 340.0038)" class="st41" width="8.38" height="26.93"/>
	</g>
	<g id="POLYLINE_315_">
		<rect x="191.17" y="449.39" class="st41" width="8.38" height="26.93"/>
	</g>
	<g id="POLYLINE_316_">
		<polygon class="st41" points="179.99,438.69 188.52,449.39 202.21,449.39 210.74,438.69 207.69,425.35 195.36,419.42 
			183.04,425.35 		"/>
	</g>
	<g id="POLYLINE_318_">
		<polygon class="st41" points="244.97,435.18 244.96,434.32 244.94,433.46 244.9,432.59 244.85,431.73 244.78,430.87 244.7,430.01 
			244.6,429.15 244.49,428.3 244.36,427.44 244.22,426.59 244.06,425.74 243.89,424.9 243.7,424.06 243.5,423.22 243.29,422.38 
			243.06,421.55 242.81,420.72 242.55,419.9 242.28,419.08 241.99,418.26 241.69,417.45 241.37,416.65 241.05,415.85 240.7,415.06 
			240.34,414.27 239.97,413.5 239.59,412.72 239.19,411.96 238.78,411.2 238.36,410.44 237.92,409.7 237.47,408.96 237.01,408.23 
			236.53,407.51 236.04,406.8 235.54,406.1 235.03,405.4 234.51,404.72 233.97,404.04 233.42,403.37 232.86,402.72 232.29,402.07 
			231.71,401.43 231.12,400.8 230.51,400.19 229.9,399.58 229.28,398.98 228.64,398.4 228,397.83 227.34,397.26 226.68,396.71 
			226,396.17 225.32,395.65 224.62,395.13 223.92,394.63 223.21,394.14 222.49,393.66 221.77,393.19 221.03,392.74 220.29,392.3 
			219.54,391.87 218.78,391.46 218.02,391.06 217.25,390.67 216.47,390.29 215.68,389.93 214.89,389.59 214.1,389.25 213.29,388.94 
			212.49,388.63 211.67,388.34 210.86,388.06 210.03,387.8 209.21,387.55 208.38,387.32 207.54,387.1 206.7,386.89 205.86,386.7 
			205.02,386.53 204.17,386.37 203.32,386.22 202.46,386.09 201.61,385.98 200.75,385.87 199.89,385.79 199.03,385.72 
			198.17,385.66 197.31,385.62 196.44,385.59 195.58,385.58 194.72,385.59 193.85,385.6 192.99,385.64 192.13,385.69 191.27,385.75 
			190.41,385.83 189.55,385.92 188.69,386.03 187.84,386.16 186.99,386.29 186.14,386.45 185.29,386.61 184.45,386.8 183.61,386.99 
			182.77,387.21 181.94,387.43 181.11,387.67 180.28,387.93 179.46,388.2 178.65,388.48 177.84,388.78 177.03,389.09 176.23,389.42 
			175.44,389.76 174.65,390.11 173.87,390.48 173.1,390.86 172.33,391.26 171.57,391.66 170.81,392.08 170.07,392.52 169.33,392.96 
			168.6,393.42 167.87,393.9 167.16,394.38 166.45,394.88 165.76,395.39 165.07,395.91 164.39,396.44 163.72,396.99 163.06,397.54 
			162.41,398.11 161.77,398.69 161.14,399.28 160.52,399.88 159.91,400.49 159.31,401.12 158.73,401.75 158.15,402.39 
			157.58,403.04 157.03,403.71 156.49,404.38 155.96,405.06 155.44,405.75 154.93,406.45 154.44,407.16 153.96,407.87 153.49,408.6 
			153.03,409.33 152.59,410.07 152.16,410.82 151.74,411.58 151.34,412.34 150.95,413.11 150.57,413.88 150.2,414.67 149.85,415.46 
			149.52,416.25 149.2,417.05 148.89,417.86 148.59,418.67 148.31,419.49 148.05,420.31 147.79,421.13 147.56,421.96 147.33,422.8 
			147.13,423.64 146.93,424.48 146.75,425.32 146.59,426.17 146.44,427.02 146.3,427.87 146.19,428.73 146.08,429.58 145.99,430.44 
			145.92,431.3 145.86,432.16 145.81,433.03 145.78,433.89 145.76,434.75 145.76,435.61 145.78,436.48 145.81,437.34 145.86,438.2 
			145.92,439.06 145.99,439.92 146.08,440.78 146.19,441.64 146.3,442.49 146.44,443.35 146.59,444.2 146.75,445.05 146.93,445.89 
			147.13,446.73 147.33,447.57 147.56,448.4 147.79,449.23 148.05,450.06 148.31,450.88 148.59,451.7 148.89,452.51 149.2,453.31 
			149.52,454.11 149.85,454.91 150.2,455.7 150.57,456.48 150.95,457.26 151.34,458.03 151.74,458.79 152.16,459.55 152.59,460.29 
			153.03,461.04 153.49,461.77 153.96,462.49 154.44,463.21 154.93,463.92 155.44,464.62 155.96,465.31 156.49,465.99 
			157.03,466.66 157.58,467.32 158.15,467.98 158.73,468.62 159.31,469.25 159.91,469.87 160.52,470.48 161.14,471.09 
			161.77,471.68 162.41,472.26 163.06,472.82 163.72,473.38 164.39,473.92 165.07,474.46 165.76,474.98 166.45,475.49 
			167.16,475.99 167.87,476.47 168.6,476.94 169.33,477.4 170.07,477.85 170.81,478.28 171.57,478.7 172.33,479.11 173.1,479.51 
			173.87,479.89 174.65,480.25 175.44,480.61 176.23,480.95 177.03,481.27 177.84,481.59 178.65,481.88 179.46,482.17 
			180.28,482.44 181.11,482.69 181.94,482.93 182.77,483.16 183.61,483.37 184.45,483.57 185.29,483.75 186.14,483.92 
			186.99,484.07 187.84,484.21 188.69,484.33 189.55,484.44 190.41,484.54 191.27,484.62 192.13,484.68 192.99,484.73 
			193.85,484.76 194.72,484.78 195.58,484.78 196.44,484.77 197.31,484.75 198.17,484.71 199.03,484.65 199.89,484.58 
			200.75,484.49 201.61,484.39 202.46,484.27 203.32,484.14 204.17,484 205.02,483.84 205.86,483.66 206.7,483.47 207.54,483.27 
			208.38,483.05 209.21,482.81 210.03,482.57 210.86,482.3 211.67,482.03 212.49,481.74 213.29,481.43 214.1,481.11 214.89,480.78 
			215.68,480.43 216.47,480.07 217.25,479.7 218.02,479.31 218.78,478.91 219.54,478.49 220.29,478.07 221.03,477.63 221.77,477.17 
			222.49,476.71 223.21,476.23 223.92,475.74 224.62,475.24 225.32,474.72 226,474.19 226.68,473.65 227.34,473.1 228,472.54 
			228.64,471.97 229.28,471.38 229.9,470.79 230.51,470.18 231.12,469.56 231.71,468.94 232.29,468.3 232.86,467.65 233.42,466.99 
			233.97,466.33 234.51,465.65 235.03,464.96 235.54,464.27 236.04,463.56 236.53,462.85 237.01,462.13 237.47,461.4 237.92,460.67 
			238.36,459.92 238.78,459.17 239.19,458.41 239.59,457.64 239.97,456.87 240.34,456.09 240.7,455.31 241.05,454.51 241.37,453.72 
			241.69,452.91 241.99,452.1 242.28,451.29 242.55,450.47 242.81,449.65 243.06,448.82 243.29,447.99 243.5,447.15 243.7,446.31 
			243.89,445.47 244.06,444.62 244.22,443.77 244.36,442.92 244.49,442.07 244.6,441.21 244.7,440.35 244.78,439.49 244.85,438.63 
			244.9,437.77 244.94,436.91 244.96,436.05 		"/>
	</g>
</g>
<g id="AG-OUTLINE">
	<g id="POLYLINE_32_">
		<polygon class="st44" points="641.23,435.18 641.23,434.63 641.22,434.08 641.21,433.53 641.18,432.97 641.16,432.41 
			641.12,431.85 641.08,431.29 641.03,430.73 640.98,430.16 640.92,429.59 640.85,429.02 640.77,428.45 640.69,427.88 640.6,427.31 
			640.51,426.73 640.41,426.16 640.3,425.58 640.18,425 640.05,424.43 639.92,423.85 639.78,423.27 639.63,422.69 639.48,422.11 
			639.32,421.53 639.15,420.96 638.97,420.38 638.79,419.8 638.6,419.22 638.4,418.65 638.19,418.07 637.97,417.5 637.75,416.92 
			637.52,416.35 637.28,415.78 637.04,415.21 636.78,414.65 636.52,414.08 636.25,413.52 635.98,412.96 635.69,412.4 635.4,411.85 
			635.1,411.29 634.79,410.74 634.48,410.2 634.16,409.65 633.83,409.11 633.49,408.57 633.15,408.04 632.8,407.51 632.44,406.98 
			632.07,406.46 631.7,405.95 631.32,405.43 630.93,404.92 630.54,404.42 630.14,403.92 629.73,403.42 629.32,402.93 628.9,402.45 
			628.47,401.97 628.04,401.5 627.6,401.03 627.16,400.57 626.71,400.11 626.25,399.66 625.79,399.21 625.32,398.77 624.84,398.34 
			624.36,397.92 623.88,397.49 623.39,397.08 622.9,396.67 622.4,396.27 621.89,395.88 621.38,395.49 620.87,395.11 620.35,394.74 
			619.83,394.38 619.3,394.02 618.77,393.67 618.24,393.32 617.7,392.99 617.16,392.66 616.62,392.33 616.07,392.02 615.52,391.71 
			614.97,391.41 614.41,391.12 613.86,390.84 613.29,390.56 612.73,390.29 612.17,390.03 611.6,389.78 611.03,389.53 610.46,389.29 
			609.89,389.06 609.32,388.84 608.74,388.63 608.17,388.42 607.59,388.22 607.01,388.03 606.44,387.84 605.86,387.67 605.28,387.5 
			604.7,387.33 604.12,387.18 603.54,387.03 602.97,386.89 602.39,386.76 601.81,386.64 601.23,386.52 600.66,386.41 600.08,386.31 
			599.51,386.21 598.93,386.12 598.36,386.04 597.79,385.97 597.22,385.9 596.65,385.84 596.09,385.78 595.52,385.73 594.96,385.69 
			594.4,385.66 593.84,385.63 593.29,385.61 592.73,385.59 592.18,385.58 591.63,385.58 591.08,385.58 590.53,385.59 589.98,385.61 
			589.42,385.63 588.86,385.66 588.3,385.69 587.74,385.73 587.17,385.78 586.61,385.84 586.04,385.9 585.47,385.97 584.9,386.04 
			584.33,386.12 583.76,386.21 583.18,386.31 582.61,386.41 582.03,386.52 581.45,386.64 580.88,386.76 580.3,386.89 579.72,387.03 
			579.14,387.18 578.56,387.33 577.98,387.5 577.4,387.67 576.83,387.84 576.25,388.03 575.67,388.22 575.1,388.42 574.52,388.63 
			573.95,388.84 573.37,389.06 572.8,389.29 572.23,389.53 571.66,389.78 571.1,390.03 570.53,390.29 569.97,390.56 569.41,390.84 
			568.85,391.12 568.29,391.41 567.74,391.71 567.19,392.02 566.64,392.33 566.1,392.66 565.56,392.99 565.02,393.32 564.49,393.67 
			563.96,394.02 563.43,394.38 562.91,394.74 562.39,395.11 561.88,395.49 561.37,395.88 560.87,396.27 560.37,396.67 
			559.87,397.08 559.38,397.49 558.9,397.92 558.42,398.34 557.95,398.77 557.48,399.21 557.01,399.66 556.56,400.11 556.11,400.57 
			555.66,401.03 555.22,401.5 554.79,401.97 554.36,402.45 553.94,402.93 553.53,403.42 553.12,403.92 552.72,404.42 552.33,404.92 
			551.94,405.43 551.56,405.95 551.19,406.46 550.82,406.98 550.47,407.51 550.12,408.04 549.77,408.57 549.43,409.11 
			549.11,409.65 548.78,410.2 548.47,410.74 548.16,411.29 547.86,411.85 547.57,412.4 547.29,412.96 547.01,413.52 546.74,414.08 
			546.48,414.65 546.23,415.21 545.98,415.78 545.74,416.35 545.51,416.92 545.29,417.5 545.07,418.07 544.87,418.65 544.67,419.22 
			544.48,419.8 544.29,420.38 544.11,420.96 543.94,421.53 543.78,422.11 543.63,422.69 543.48,423.27 543.34,423.85 543.21,424.43 
			543.09,425 542.97,425.58 542.86,426.16 542.75,426.73 542.66,427.31 542.57,427.88 542.49,428.45 542.41,429.02 542.35,429.59 
			542.28,430.16 542.23,430.73 542.18,431.29 542.14,431.85 542.11,432.41 542.08,432.97 542.06,433.53 542.04,434.08 
			542.03,434.63 542.03,435.18 542.03,435.73 542.04,436.28 542.06,436.84 542.08,437.39 542.11,437.95 542.14,438.51 
			542.18,439.08 542.23,439.64 542.28,440.21 542.35,440.77 542.41,441.34 542.49,441.91 542.57,442.49 542.66,443.06 
			542.75,443.63 542.86,444.21 542.97,444.78 543.09,445.36 543.21,445.94 543.34,446.52 543.48,447.1 543.63,447.67 543.78,448.25 
			543.94,448.83 544.11,449.41 544.29,449.99 544.48,450.57 544.67,451.14 544.87,451.72 545.07,452.29 545.29,452.87 
			545.51,453.44 545.74,454.01 545.98,454.58 546.23,455.15 546.48,455.72 546.74,456.28 547.01,456.85 547.29,457.41 
			547.57,457.96 547.86,458.52 548.16,459.07 548.47,459.62 548.78,460.17 549.11,460.71 549.43,461.25 549.77,461.79 
			550.12,462.33 550.47,462.86 550.82,463.38 551.19,463.9 551.56,464.42 551.94,464.93 552.33,465.44 552.72,465.95 553.12,466.45 
			553.53,466.94 553.94,467.43 554.36,467.92 554.79,468.4 555.22,468.87 555.66,469.34 556.11,469.8 556.56,470.26 557.01,470.71 
			557.48,471.15 557.95,471.59 558.42,472.02 558.9,472.45 559.38,472.87 559.87,473.28 560.37,473.69 560.87,474.09 561.37,474.49 
			561.88,474.87 562.39,475.25 562.91,475.62 563.43,475.99 563.96,476.35 564.49,476.7 565.02,477.04 565.56,477.38 566.1,477.71 
			566.64,478.03 567.19,478.35 567.74,478.65 568.29,478.95 568.85,479.24 569.41,479.53 569.97,479.8 570.53,480.07 571.1,480.33 
			571.66,480.59 572.23,480.83 572.8,481.07 573.37,481.3 573.95,481.52 574.52,481.74 575.1,481.95 575.67,482.15 576.25,482.34 
			576.83,482.52 577.4,482.7 577.98,482.87 578.56,483.03 579.14,483.19 579.72,483.33 580.3,483.47 580.88,483.6 581.45,483.73 
			582.03,483.85 582.61,483.96 583.18,484.06 583.76,484.16 584.33,484.24 584.9,484.33 585.47,484.4 586.04,484.47 586.61,484.53 
			587.17,484.58 587.74,484.63 588.3,484.67 588.86,484.71 589.42,484.74 589.98,484.76 590.53,484.77 591.08,484.78 591.63,484.78 
			592.18,484.78 592.73,484.77 593.29,484.76 593.84,484.74 594.4,484.71 594.96,484.67 595.52,484.63 596.09,484.58 596.65,484.53 
			597.22,484.47 597.79,484.4 598.36,484.33 598.93,484.24 599.51,484.16 600.08,484.06 600.66,483.96 601.23,483.85 601.81,483.73 
			602.39,483.6 602.97,483.47 603.54,483.33 604.12,483.19 604.7,483.03 605.28,482.87 605.86,482.7 606.44,482.52 607.01,482.34 
			607.59,482.15 608.17,481.95 608.74,481.74 609.32,481.52 609.89,481.3 610.46,481.07 611.03,480.83 611.6,480.59 612.17,480.33 
			612.73,480.07 613.29,479.8 613.86,479.53 614.41,479.24 614.97,478.95 615.52,478.65 616.07,478.35 616.62,478.03 617.16,477.71 
			617.7,477.38 618.24,477.04 618.77,476.7 619.3,476.35 619.83,475.99 620.35,475.62 620.87,475.25 621.38,474.87 621.89,474.49 
			622.4,474.09 622.9,473.69 623.39,473.28 623.88,472.87 624.36,472.45 624.84,472.02 625.32,471.59 625.79,471.15 626.25,470.71 
			626.71,470.26 627.16,469.8 627.6,469.34 628.04,468.87 628.47,468.4 628.9,467.92 629.32,467.43 629.73,466.94 630.14,466.45 
			630.54,465.95 630.93,465.44 631.32,464.93 631.7,464.42 632.07,463.9 632.44,463.38 632.8,462.86 633.15,462.33 633.49,461.79 
			633.83,461.25 634.16,460.71 634.48,460.17 634.79,459.62 635.1,459.07 635.4,458.52 635.69,457.96 635.98,457.41 636.25,456.85 
			636.52,456.28 636.78,455.72 637.04,455.15 637.28,454.58 637.52,454.01 637.75,453.44 637.97,452.87 638.19,452.29 638.4,451.72 
			638.6,451.14 638.79,450.57 638.97,449.99 639.15,449.41 639.32,448.83 639.48,448.25 639.63,447.67 639.78,447.1 639.92,446.52 
			640.05,445.94 640.18,445.36 640.3,444.78 640.41,444.21 640.51,443.63 640.6,443.06 640.69,442.49 640.77,441.91 640.85,441.34 
			640.92,440.77 640.98,440.21 641.03,439.64 641.08,439.08 641.12,438.51 641.16,437.95 641.18,437.39 641.21,436.84 
			641.22,436.28 641.23,435.73 		"/>
	</g>
	<g id="POLYLINE_31_">
		<polygon class="st44" points="244.97,435.18 244.96,434.63 244.95,434.08 244.94,433.53 244.92,432.97 244.89,432.41 
			244.85,431.85 244.81,431.29 244.77,430.73 244.71,430.16 244.65,429.59 244.58,429.02 244.51,428.45 244.43,427.88 
			244.34,427.31 244.24,426.73 244.14,426.16 244.03,425.58 243.91,425 243.79,424.43 243.65,423.85 243.51,423.27 243.37,422.69 
			243.21,422.11 243.05,421.53 242.88,420.96 242.71,420.38 242.52,419.8 242.33,419.22 242.13,418.65 241.92,418.07 241.71,417.5 
			241.48,416.92 241.25,416.35 241.02,415.78 240.77,415.21 240.52,414.65 240.25,414.08 239.99,413.52 239.71,412.96 239.43,412.4 
			239.13,411.85 238.83,411.29 238.53,410.74 238.21,410.2 237.89,409.65 237.56,409.11 237.23,408.57 236.88,408.04 236.53,407.51 
			236.17,406.98 235.81,406.46 235.43,405.95 235.05,405.43 234.67,404.92 234.27,404.42 233.87,403.92 233.47,403.42 
			233.05,402.93 232.63,402.45 232.21,401.97 231.77,401.5 231.33,401.03 230.89,400.57 230.44,400.11 229.98,399.66 229.52,399.21 
			229.05,398.77 228.58,398.34 228.1,397.92 227.61,397.49 227.12,397.08 226.63,396.67 226.13,396.27 225.62,395.88 225.12,395.49 
			224.6,395.11 224.09,394.74 223.56,394.38 223.04,394.02 222.51,393.67 221.97,393.32 221.44,392.99 220.9,392.66 220.35,392.33 
			219.81,392.02 219.26,391.71 218.7,391.41 218.15,391.12 217.59,390.84 217.03,390.56 216.47,390.29 215.9,390.03 215.33,389.78 
			214.76,389.53 214.19,389.29 213.62,389.06 213.05,388.84 212.48,388.63 211.9,388.42 211.32,388.22 210.75,388.03 210.17,387.84 
			209.59,387.67 209.01,387.5 208.43,387.33 207.86,387.18 207.28,387.03 206.7,386.89 206.12,386.76 205.54,386.64 204.97,386.52 
			204.39,386.41 203.82,386.31 203.24,386.21 202.67,386.12 202.1,386.04 201.52,385.97 200.96,385.9 200.39,385.84 199.82,385.78 
			199.26,385.73 198.7,385.69 198.13,385.66 197.58,385.63 197.02,385.61 196.47,385.59 195.91,385.58 195.36,385.58 194.82,385.58 
			194.26,385.59 193.71,385.61 193.15,385.63 192.6,385.66 192.03,385.69 191.47,385.73 190.91,385.78 190.34,385.84 189.77,385.9 
			189.2,385.97 188.63,386.04 188.06,386.12 187.49,386.21 186.91,386.31 186.34,386.41 185.76,386.52 185.19,386.64 184.61,386.76 
			184.03,386.89 183.45,387.03 182.87,387.18 182.3,387.33 181.72,387.5 181.14,387.67 180.56,387.84 179.98,388.03 179.41,388.22 
			178.83,388.42 178.25,388.63 177.68,388.84 177.11,389.06 176.53,389.29 175.96,389.53 175.4,389.78 174.83,390.03 174.26,390.29 
			173.7,390.56 173.14,390.84 172.58,391.12 172.03,391.41 171.47,391.71 170.92,392.02 170.38,392.33 169.83,392.66 169.29,392.99 
			168.76,393.32 168.22,393.67 167.69,394.02 167.17,394.38 166.64,394.74 166.13,395.11 165.61,395.49 165.1,395.88 164.6,396.27 
			164.1,396.67 163.61,397.08 163.12,397.49 162.63,397.92 162.15,398.34 161.68,398.77 161.21,399.21 160.75,399.66 160.29,400.11 
			159.84,400.57 159.4,401.03 158.96,401.5 158.52,401.97 158.1,402.45 157.68,402.93 157.26,403.42 156.86,403.92 156.46,404.42 
			156.06,404.92 155.68,405.43 155.3,405.95 154.92,406.46 154.56,406.98 154.2,407.51 153.85,408.04 153.5,408.57 153.17,409.11 
			152.84,409.65 152.52,410.2 152.2,410.74 151.9,411.29 151.6,411.85 151.3,412.4 151.02,412.96 150.74,413.52 150.47,414.08 
			150.21,414.65 149.96,415.21 149.71,415.78 149.48,416.35 149.25,416.92 149.02,417.5 148.81,418.07 148.6,418.65 148.4,419.22 
			148.21,419.8 148.02,420.38 147.85,420.96 147.68,421.53 147.52,422.11 147.36,422.69 147.21,423.27 147.08,423.85 146.94,424.43 
			146.82,425 146.7,425.58 146.59,426.16 146.49,426.73 146.39,427.31 146.3,427.88 146.22,428.45 146.15,429.02 146.08,429.59 
			146.02,430.16 145.96,430.73 145.92,431.29 145.88,431.85 145.84,432.41 145.81,432.97 145.79,433.53 145.78,434.08 
			145.77,434.63 145.76,435.18 145.77,435.73 145.78,436.28 145.79,436.84 145.81,437.39 145.84,437.95 145.88,438.51 
			145.92,439.08 145.96,439.64 146.02,440.21 146.08,440.77 146.15,441.34 146.22,441.91 146.3,442.49 146.39,443.06 146.49,443.63 
			146.59,444.21 146.7,444.78 146.82,445.36 146.94,445.94 147.08,446.52 147.21,447.1 147.36,447.67 147.52,448.25 147.68,448.83 
			147.85,449.41 148.02,449.99 148.21,450.57 148.4,451.14 148.6,451.72 148.81,452.29 149.02,452.87 149.25,453.44 149.48,454.01 
			149.71,454.58 149.96,455.15 150.21,455.72 150.47,456.28 150.74,456.85 151.02,457.41 151.3,457.96 151.6,458.52 151.9,459.07 
			152.2,459.62 152.52,460.17 152.84,460.71 153.17,461.25 153.5,461.79 153.85,462.33 154.2,462.86 154.56,463.38 154.92,463.9 
			155.3,464.42 155.68,464.93 156.06,465.44 156.46,465.95 156.86,466.45 157.26,466.94 157.68,467.43 158.1,467.92 158.52,468.4 
			158.96,468.87 159.4,469.34 159.84,469.8 160.29,470.26 160.75,470.71 161.21,471.15 161.68,471.59 162.15,472.02 162.63,472.45 
			163.12,472.87 163.61,473.28 164.1,473.69 164.6,474.09 165.1,474.49 165.61,474.87 166.13,475.25 166.64,475.62 167.17,475.99 
			167.69,476.35 168.22,476.7 168.76,477.04 169.29,477.38 169.83,477.71 170.38,478.03 170.92,478.35 171.47,478.65 172.03,478.95 
			172.58,479.24 173.14,479.53 173.7,479.8 174.26,480.07 174.83,480.33 175.4,480.59 175.96,480.83 176.53,481.07 177.11,481.3 
			177.68,481.52 178.25,481.74 178.83,481.95 179.41,482.15 179.98,482.34 180.56,482.52 181.14,482.7 181.72,482.87 182.3,483.03 
			182.87,483.19 183.45,483.33 184.03,483.47 184.61,483.6 185.19,483.73 185.76,483.85 186.34,483.96 186.91,484.06 187.49,484.16 
			188.06,484.24 188.63,484.33 189.2,484.4 189.77,484.47 190.34,484.53 190.91,484.58 191.47,484.63 192.03,484.67 192.6,484.71 
			193.15,484.74 193.71,484.76 194.26,484.77 194.82,484.78 195.36,484.78 195.91,484.78 196.47,484.77 197.02,484.76 
			197.58,484.74 198.13,484.71 198.7,484.67 199.26,484.63 199.82,484.58 200.39,484.53 200.96,484.47 201.52,484.4 202.1,484.33 
			202.67,484.24 203.24,484.16 203.82,484.06 204.39,483.96 204.97,483.85 205.54,483.73 206.12,483.6 206.7,483.47 207.28,483.33 
			207.86,483.19 208.43,483.03 209.01,482.87 209.59,482.7 210.17,482.52 210.75,482.34 211.32,482.15 211.9,481.95 212.48,481.74 
			213.05,481.52 213.62,481.3 214.19,481.07 214.76,480.83 215.33,480.59 215.9,480.33 216.47,480.07 217.03,479.8 217.59,479.53 
			218.15,479.24 218.7,478.95 219.26,478.65 219.81,478.35 220.35,478.03 220.9,477.71 221.44,477.38 221.97,477.04 222.51,476.7 
			223.04,476.35 223.56,475.99 224.09,475.62 224.6,475.25 225.12,474.87 225.62,474.49 226.13,474.09 226.63,473.69 227.12,473.28 
			227.61,472.87 228.1,472.45 228.58,472.02 229.05,471.59 229.52,471.15 229.98,470.71 230.44,470.26 230.89,469.8 231.33,469.34 
			231.77,468.87 232.21,468.4 232.63,467.92 233.05,467.43 233.47,466.94 233.87,466.45 234.27,465.95 234.67,465.44 235.05,464.93 
			235.43,464.42 235.81,463.9 236.17,463.38 236.53,462.86 236.88,462.33 237.23,461.79 237.56,461.25 237.89,460.71 238.21,460.17 
			238.53,459.62 238.83,459.07 239.13,458.52 239.43,457.96 239.71,457.41 239.99,456.85 240.25,456.28 240.52,455.72 
			240.77,455.15 241.02,454.58 241.25,454.01 241.48,453.44 241.71,452.87 241.92,452.29 242.13,451.72 242.33,451.14 
			242.52,450.57 242.71,449.99 242.88,449.41 243.05,448.83 243.21,448.25 243.37,447.67 243.51,447.1 243.65,446.52 243.79,445.94 
			243.91,445.36 244.03,444.78 244.14,444.21 244.24,443.63 244.34,443.06 244.43,442.49 244.51,441.91 244.58,441.34 
			244.65,440.77 244.71,440.21 244.77,439.64 244.81,439.08 244.85,438.51 244.89,437.95 244.92,437.39 244.94,436.84 
			244.95,436.28 244.96,435.73 		"/>
	</g>
	<g id="POLYLINE_30_">
		<polygon class="st44" points="652.59,362.31 419.19,286.52 73.07,333.47 84.5,402.31 93.69,403.14 93.69,410.56 80.3,409.35 
			82.79,422.6 126.09,439.62 139.04,439.62 139.04,426.96 146.28,428.01 146.22,428.47 146.16,428.92 146.1,429.38 146.05,429.83 
			146.01,430.28 145.96,430.74 145.92,431.19 145.89,431.64 145.86,432.08 145.83,432.53 145.81,432.98 145.79,433.42 
			145.78,433.86 145.77,434.3 145.77,434.74 145.76,435.18 145.77,435.73 145.78,436.28 145.79,436.84 145.81,437.39 145.84,437.95 
			145.88,438.51 145.92,439.08 145.96,439.64 146.02,440.21 146.08,440.77 146.15,441.34 146.22,441.91 146.3,442.49 146.39,443.06 
			146.49,443.63 146.59,444.21 146.7,444.78 146.82,445.36 146.94,445.94 147.08,446.52 147.21,447.1 147.36,447.67 147.52,448.25 
			147.68,448.83 147.85,449.41 148.02,449.99 148.21,450.57 148.4,451.14 148.6,451.72 148.81,452.29 149.02,452.87 149.25,453.44 
			149.48,454.01 149.71,454.58 149.96,455.15 150.21,455.72 150.47,456.28 150.74,456.85 151.02,457.41 151.3,457.96 151.6,458.52 
			151.9,459.07 152.2,459.62 152.52,460.17 152.84,460.71 153.17,461.25 153.5,461.79 153.85,462.33 154.2,462.86 154.56,463.38 
			154.92,463.9 155.3,464.42 155.68,464.93 156.06,465.44 156.46,465.95 156.86,466.45 157.26,466.94 157.68,467.43 158.1,467.92 
			158.52,468.4 158.96,468.87 159.4,469.34 159.84,469.8 160.29,470.26 160.75,470.71 161.21,471.15 161.68,471.59 162.15,472.02 
			162.63,472.45 163.12,472.87 163.61,473.28 164.1,473.69 164.6,474.09 165.1,474.49 165.61,474.87 166.13,475.25 166.64,475.62 
			167.17,475.99 167.69,476.35 168.22,476.7 168.76,477.04 169.29,477.38 169.83,477.71 170.38,478.03 170.92,478.35 171.47,478.65 
			172.03,478.95 172.58,479.24 173.14,479.53 173.7,479.8 174.26,480.07 174.83,480.33 175.4,480.59 175.96,480.83 176.53,481.07 
			177.11,481.3 177.68,481.52 178.25,481.74 178.83,481.95 179.41,482.15 179.98,482.34 180.56,482.52 181.14,482.7 181.72,482.87 
			182.3,483.03 182.87,483.19 183.45,483.33 184.03,483.47 184.61,483.6 185.19,483.73 185.76,483.85 186.34,483.96 186.91,484.06 
			187.49,484.16 188.06,484.24 188.63,484.33 189.2,484.4 189.77,484.47 190.34,484.53 190.91,484.58 191.47,484.63 192.03,484.67 
			192.6,484.71 193.15,484.74 193.71,484.76 194.26,484.77 194.82,484.78 195.36,484.78 195.86,484.78 196.36,484.77 196.85,484.76 
			197.36,484.74 197.86,484.72 198.36,484.69 198.87,484.66 199.37,484.62 199.88,484.58 200.39,484.53 200.9,484.47 201.42,484.41 
			201.93,484.35 202.45,484.28 202.96,484.2 203.48,484.12 204,484.03 204.51,483.93 205.03,483.83 205.55,483.73 206.07,483.62 
			206.59,483.5 207.12,483.37 207.64,483.24 208.16,483.11 208.68,482.96 209.2,482.82 209.72,482.66 210.24,482.5 210.76,482.33 
			211.28,482.16 211.8,481.98 212.32,481.8 212.84,481.61 213.35,481.41 213.87,481.2 214.38,480.99 214.9,480.78 215.41,480.55 
			215.92,480.33 216.43,480.09 216.94,479.85 217.44,479.6 217.94,479.35 218.45,479.09 218.95,478.82 219.44,478.55 219.94,478.27 
			220.43,477.99 220.92,477.7 221.41,477.4 221.89,477.1 222.37,476.79 222.85,476.47 223.33,476.15 223.8,475.83 224.27,475.5 
			224.73,475.16 225.19,474.81 225.65,474.47 226.11,474.11 226.56,473.75 227,473.39 227.44,473.01 227.88,472.64 228.32,472.26 
			228.75,471.87 229.17,471.48 229.59,471.08 230.01,470.68 230.42,470.27 230.83,469.86 231.23,469.45 231.63,469.03 232.02,468.6 
			232.41,468.17 232.79,467.74 233.16,467.3 233.53,466.86 233.9,466.41 234.26,465.96 234.62,465.51 234.97,465.05 235.31,464.59 
			235.65,464.13 235.98,463.66 236.31,463.19 236.63,462.71 236.94,462.23 237.25,461.75 237.55,461.27 237.85,460.78 
			238.14,460.29 238.43,459.8 238.71,459.3 238.98,458.81 239.25,458.31 239.51,457.81 239.76,457.3 240.01,456.8 240.25,456.29 
			240.49,455.78 240.72,455.27 240.94,454.76 241.16,454.25 241.37,453.73 241.57,453.22 241.77,452.7 241.96,452.18 242.15,451.66 
			242.33,451.15 242.5,450.63 242.67,450.11 242.83,449.59 242.98,449.06 243.13,448.54 243.28,448.02 243.41,447.5 243.54,446.98 
			243.67,446.46 243.79,445.94 243.9,445.42 244.01,444.9 244.11,444.38 244.2,443.86 244.29,443.34 244.37,442.83 244.45,442.31 
			250.05,443.12 250.05,448.09 533.71,448.09 533.71,443.42 542.48,441.82 542.55,442.34 542.63,442.86 542.71,443.38 542.8,443.9 
			542.9,444.42 543,444.94 543.11,445.47 543.22,445.99 543.34,446.52 543.47,447.04 543.6,447.57 543.74,448.09 543.88,448.62 
			544.03,449.14 544.19,449.67 544.35,450.19 544.52,450.72 544.7,451.24 544.88,451.76 545.07,452.28 545.27,452.81 545.47,453.33 
			545.67,453.85 545.89,454.36 546.11,454.88 546.33,455.39 546.57,455.91 546.81,456.42 547.05,456.93 547.3,457.44 547.56,457.95 
			547.83,458.45 548.1,458.95 548.37,459.45 548.66,459.95 548.94,460.45 549.24,460.94 549.54,461.43 549.85,461.91 550.16,462.4 
			550.48,462.88 550.81,463.35 551.14,463.83 551.47,464.3 551.82,464.77 552.17,465.23 552.52,465.69 552.88,466.15 553.25,466.6 
			553.62,467.04 553.99,467.49 554.37,467.93 554.76,468.36 555.15,468.79 555.55,469.22 555.95,469.64 556.36,470.06 
			556.77,470.47 557.19,470.88 557.61,471.28 558.04,471.68 558.47,472.07 558.9,472.45 559.34,472.84 559.79,473.21 560.23,473.58 
			560.69,473.95 561.14,474.31 561.6,474.66 562.07,475.01 562.53,475.35 563,475.69 563.48,476.02 563.95,476.35 564.44,476.66 
			564.92,476.98 565.41,477.28 565.9,477.59 566.39,477.88 566.88,478.17 567.38,478.45 567.88,478.73 568.38,479 568.89,479.26 
			569.39,479.52 569.9,479.77 570.41,480.02 570.92,480.26 571.44,480.49 571.95,480.71 572.47,480.93 572.99,481.15 573.51,481.36 
			574.03,481.56 574.55,481.75 575.07,481.94 575.59,482.12 576.12,482.3 576.64,482.47 577.17,482.63 577.69,482.79 578.22,482.94 
			578.74,483.08 579.27,483.22 579.79,483.35 580.32,483.48 580.84,483.6 581.37,483.71 581.89,483.82 582.41,483.92 582.93,484.02 
			583.46,484.11 583.98,484.19 584.5,484.27 585.02,484.34 585.53,484.41 586.05,484.47 586.57,484.53 587.08,484.58 587.59,484.62 
			588.1,484.66 588.61,484.69 589.12,484.72 589.63,484.74 590.13,484.76 590.63,484.77 591.13,484.78 591.63,484.78 592.18,484.78 
			592.73,484.77 593.29,484.76 593.84,484.74 594.4,484.71 594.96,484.67 595.52,484.63 596.09,484.58 596.65,484.53 597.22,484.47 
			597.79,484.4 598.36,484.33 598.93,484.24 599.51,484.16 600.08,484.06 600.66,483.96 601.23,483.85 601.81,483.73 602.39,483.6 
			602.97,483.47 603.54,483.33 604.12,483.19 604.7,483.03 605.28,482.87 605.86,482.7 606.44,482.52 607.01,482.34 607.59,482.15 
			608.17,481.95 608.74,481.74 609.32,481.52 609.89,481.3 610.46,481.07 611.03,480.83 611.6,480.59 612.17,480.33 612.73,480.07 
			613.29,479.8 613.86,479.53 614.41,479.24 614.97,478.95 615.52,478.65 616.07,478.35 616.62,478.03 617.16,477.71 617.7,477.38 
			618.24,477.04 618.77,476.7 619.3,476.35 619.83,475.99 620.35,475.62 620.87,475.25 621.38,474.87 621.89,474.49 622.4,474.09 
			622.9,473.69 623.39,473.28 623.88,472.87 624.36,472.45 624.84,472.02 625.32,471.59 625.79,471.15 626.25,470.71 626.71,470.26 
			627.16,469.8 627.6,469.34 628.04,468.87 628.47,468.4 628.9,467.92 629.32,467.43 629.73,466.94 630.14,466.45 630.54,465.95 
			630.93,465.44 631.32,464.93 631.7,464.42 632.07,463.9 632.44,463.38 632.8,462.86 633.15,462.33 633.49,461.79 633.83,461.25 
			634.16,460.71 634.48,460.17 634.79,459.62 635.1,459.07 635.4,458.52 635.69,457.96 635.98,457.41 636.25,456.85 636.52,456.28 
			636.78,455.72 637.04,455.15 637.28,454.58 637.52,454.01 637.75,453.44 637.97,452.87 638.19,452.29 638.4,451.72 638.6,451.14 
			638.79,450.57 638.97,449.99 639.15,449.41 639.32,448.83 639.48,448.25 639.63,447.67 639.78,447.1 639.92,446.52 640.05,445.94 
			640.18,445.36 640.3,444.78 640.41,444.21 640.51,443.63 640.6,443.06 640.69,442.49 640.77,441.91 640.85,441.34 640.92,440.77 
			640.98,440.21 641.03,439.64 641.08,439.08 641.12,438.51 641.16,437.95 641.18,437.39 641.21,436.84 641.22,436.28 
			641.23,435.73 641.23,435.18 641.23,434.5 641.21,433.82 641.19,433.13 641.16,432.44 641.11,431.74 641.06,431.05 641,430.35 
			640.92,429.64 640.84,428.94 640.74,428.23 640.64,427.52 640.52,426.81 640.39,426.1 640.26,425.39 640.11,424.67 639.95,423.95 
			643.99,423.21 643.99,436.21 677.12,430.43 685.57,410.22 679.88,410.22 682.21,405.01 685.57,376.83 683.71,376.33 
			684.36,370.89 		"/>
	</g>
</g>
</svg>
