<svg width="0" height="0" class="hidden">
  <symbol fill="none" xmlns="http://www.w3.org/2000/svg" viewBox="0 0 25 9" id="arrow-icon">
    <path d="M0 4.99124V3.74124C0 3.39606 0.279908 3.11624 0.625193 3.11624H20.0062V0.616238C20.0097 0.366191 20.1619 0.142308 20.3933 0.0470931C20.6246 -0.0481216 20.8904 0.00366329 21.069 0.178738L24.8201 3.92874C25.06 4.17601 25.06 4.56897 24.8201 4.81624L21.069 8.56624C20.8887 8.74287 20.6199 8.79382 20.3875 8.69542C20.1551 8.59702 20.0047 8.36856 20.0062 8.11624V5.61624H0.625193C0.279908 5.61624 0 5.33642 0 4.99124Z" fill="currentColor"></path>
  </symbol>
  <symbol fill="none" xmlns="http://www.w3.org/2000/svg" viewBox="0 0 21 19" id="cart-icon">
    <path d="M6.76598 12.5766H6.76694C6.76775 12.5766 6.76855 12.5764 6.76935 12.5764H17.9238C18.1984 12.5764 18.4399 12.3942 18.5154 12.1302L20.9763 3.51693C21.0293 3.33124 20.9922 3.13161 20.876 2.97748C20.7597 2.82335 20.5778 2.73267 20.3848 2.73267H5.3471L4.9073 0.753502C4.84466 0.472 4.59504 0.271729 4.30665 0.271729H0.615242C0.275421 0.271729 7.62939e-06 0.547142 7.62939e-06 0.886963C7.62939e-06 1.22678 0.275421 1.5022 0.615242 1.5022H3.81318C3.89104 1.85291 5.91779 10.9734 6.03443 11.4982C5.38058 11.7824 4.92188 12.4343 4.92188 13.1916C4.92188 14.2093 5.74989 15.0374 6.76759 15.0374H17.9238C18.2637 15.0374 18.5391 14.7619 18.5391 14.4221C18.5391 14.0823 18.2637 13.8069 17.9238 13.8069H6.76759C6.42841 13.8069 6.15235 13.5308 6.15235 13.1916C6.15235 12.853 6.42744 12.5774 6.76598 12.5766ZM19.5691 3.96313L17.4597 11.3459H7.26105L5.62043 3.96313H19.5691Z" fill="currentColor"></path>
    <path d="M6.15234 16.8828C6.15234 17.9005 6.98035 18.7285 7.99805 18.7285C9.01575 18.7285 9.84375 17.9005 9.84375 16.8828C9.84375 15.8651 9.01575 15.0371 7.99805 15.0371C6.98035 15.0371 6.15234 15.8651 6.15234 16.8828ZM7.99805 16.2676C8.33723 16.2676 8.61328 16.5436 8.61328 16.8828C8.61328 17.222 8.33723 17.498 7.99805 17.498C7.65887 17.498 7.38281 17.222 7.38281 16.8828C7.38281 16.5436 7.65887 16.2676 7.99805 16.2676Z" fill="currentColor"></path>
    <path d="M14.8476 16.8828C14.8476 17.9005 15.6756 18.7285 16.6933 18.7285C17.711 18.7285 18.539 17.9005 18.539 16.8828C18.539 15.8651 17.711 15.0371 16.6933 15.0371C15.6756 15.0371 14.8476 15.8651 14.8476 16.8828ZM16.6933 16.2676C17.0325 16.2676 17.3086 16.5436 17.3086 16.8828C17.3086 17.222 17.0325 17.498 16.6933 17.498C16.3541 17.498 16.0781 17.222 16.0781 16.8828C16.0781 16.5436 16.3541 16.2676 16.6933 16.2676Z" fill="currentColor"></path>
  </symbol>
  <symbol fill="none" xmlns="http://www.w3.org/2000/svg" viewBox="0 0 14 14" id="cross-icon">
    <path d="M13.3467 1.53027L7.87695 7L13.3467 12.4697L12.2861 13.5303L6.81641 8.06055L1.53027 13.3467L0.469727 12.2861L5.75586 7L0.469727 1.71387L1.53027 0.65332L6.81641 5.93945L12.2861 0.469727L13.3467 1.53027Z" fill="currentColor"></path>
  </symbol>
  <symbol fill="none" xmlns="http://www.w3.org/2000/svg" viewBox="0 0 32 18" id="eye-icon">
    <path d="M2.12496 9L3.76246 10.6375C10.5125 17.3875 21.4937 17.3875 28.2437 10.6375L29.875 9L28.2375 7.3625C21.4875 0.6125 10.5062 0.6125 3.75621 7.3625L2.12496 9ZM16 16.8875C11.2625 16.8875 6.52496 15.0813 2.91871 11.475L0.862463 9.41875C0.631213 9.1875 0.631213 8.8125 0.862463 8.575L2.91871 6.51875C10.1312 -0.69375 21.8687 -0.69375 29.0812 6.51875L31.1375 8.575C31.3687 8.80625 31.3687 9.18125 31.1375 9.41875L29.0812 11.475C25.475 15.0813 20.7375 16.8875 16 16.8875Z" fill="currentColor"></path>
    <path d="M2.81307 6.41303C10.0841 -0.858053 21.916 -0.858053 29.1871 6.41303L31.2437 8.46869C31.5343 8.75929 31.5319 9.22843 31.2447 9.52338L29.1871 11.581C25.5515 15.2165 20.7751 17.037 15.9996 17.037C11.2242 17.0369 6.44851 15.2163 2.81307 11.581L0.756428 9.52435C0.466027 9.23374 0.468328 8.76553 0.755451 8.47064L0.756428 8.46869L2.81307 6.41303ZM28.9752 6.62494C21.8213 -0.528982 10.1789 -0.528982 3.02498 6.62494L0.969318 8.67865C0.794072 8.85863 0.796633 9.14052 0.968342 9.31244L3.02498 11.3691C6.6018 14.9458 11.3004 16.7371 15.9996 16.7372C20.699 16.7372 25.3982 14.946 28.9752 11.3691L31.0318 9.31244C31.2054 9.13232 31.2032 8.85196 31.0318 8.6806L28.9752 6.62494ZM3.97225 6.94232C10.8037 0.449434 21.6411 0.554535 28.3433 7.25678L29.981 8.89349L30.0865 8.99994L29.981 9.10541L28.3502 10.7431C21.5416 17.5517 10.4654 17.5517 3.65682 10.7431L2.01912 9.10639L2.12459 8.99994L2.01912 8.89447L3.64998 7.25678L3.97225 6.94232ZM28.1314 7.46869C21.4401 0.777333 10.5533 0.776487 3.8619 7.46771L3.86287 7.46869L2.33651 8.99896L3.86873 10.5312C10.5601 17.2226 21.4459 17.2225 28.1373 10.5312L29.6627 8.99994L28.1314 7.46869Z" fill="currentColor"></path>
    <path d="M16 4.46875C13.5 4.46875 11.4687 6.5 11.4687 9C11.4687 11.5 13.5 13.5312 16 13.5312C18.5 13.5312 20.5312 11.5 20.5312 9C20.5312 6.5 18.5 4.46875 16 4.46875ZM16 14.7188C12.8437 14.7188 10.2812 12.15 10.2812 9C10.2812 5.84375 12.85 3.28125 16 3.28125C19.15 3.28125 21.7187 5.85 21.7187 9C21.7187 12.1562 19.1562 14.7188 16 14.7188Z" fill="currentColor"></path>
    <path d="M21.5684 9C21.5684 5.93284 19.0672 3.43164 16 3.43164C12.9327 3.43164 10.4316 5.9267 10.4316 9C10.4316 12.0673 12.9267 14.5684 16 14.5684C19.0734 14.5684 21.5684 12.0734 21.5684 9ZM20.3809 9C20.3809 6.58284 18.4172 4.61914 16 4.61914C13.5828 4.61914 11.6191 6.58284 11.6191 9C11.6191 11.4172 13.5828 13.3809 16 13.3809C18.4172 13.3809 20.3809 11.4172 20.3809 9ZM20.6816 9C20.6816 11.5828 18.5828 13.6816 16 13.6816C13.4172 13.6816 11.3184 11.5828 11.3184 9C11.3184 6.41716 13.4172 4.31836 16 4.31836C18.5828 4.31836 20.6816 6.41716 20.6816 9ZM21.8691 9C21.8691 12.2391 19.2391 14.8691 16 14.8691C12.7608 14.8691 10.1309 12.2327 10.1309 9C10.1309 5.7608 12.7673 3.13086 16 3.13086C19.2328 3.13086 21.8691 5.76716 21.8691 9Z" fill="currentColor"></path>
  </symbol>
  <symbol fill="none" xmlns="http://www.w3.org/2000/svg" viewBox="0 0 25 23" id="like-icon">
    <path d="M11.3428 22.1291C11.6538 22.44 12.0718 22.6134 12.5102 22.6134C12.9435 22.6134 13.3717 22.4349 13.6776 22.1291L22.8385 12.9682C24.2302 11.5764 24.9949 9.72591 25 7.76323C25 5.79545 24.2353 3.94492 22.8436 2.5532C21.4519 1.16147 19.6064 0.396792 17.6387 0.396792C15.7066 0.396792 13.8866 1.13599 12.5051 2.48183C11.1185 1.13089 9.29343 0.386597 7.35624 0.386597C5.39356 0.386597 3.54812 1.15128 2.1564 2.5379C0.764682 3.92962 0 5.78015 0 7.74794C0 9.71062 0.76978 11.5611 2.1615 12.9529L11.3428 22.1291ZM3.04343 3.42493C4.19555 2.27281 5.73002 1.63558 7.36134 1.63558C8.99266 1.63558 10.5322 2.27281 11.6894 3.43003L12.0667 3.80727C12.1839 3.92453 12.342 3.9908 12.5102 3.9908C12.6733 3.9908 12.8365 3.92453 12.9537 3.80727L13.3208 3.44023C14.478 2.28301 16.0124 1.64577 17.6489 1.64577C19.2802 1.64577 20.8146 2.28301 21.9668 3.43513C23.124 4.59235 23.7561 6.12681 23.7561 7.75813C23.7561 9.38945 23.1189 10.9239 21.9617 12.0811L12.7957 21.2471C12.6478 21.395 12.3777 21.395 12.2247 21.2471L3.04853 12.0709C1.89131 10.9137 1.25408 9.37926 1.25408 7.74794C1.25408 6.11661 1.89131 4.58215 3.04343 3.42493Z" fill="currentColor"></path>
    <path d="M1.10449 7.74792C1.10449 6.07669 1.75757 4.50436 2.9375 3.31921C4.11769 2.13902 5.69015 1.48523 7.36133 1.48523C9.03247 1.48523 10.6106 2.13877 11.7959 3.3241L12.1729 3.70105C12.262 3.79021 12.3817 3.84059 12.5098 3.8407C12.6336 3.8407 12.7589 3.78985 12.8477 3.70105L13.2148 3.33386C14.4 2.14883 15.9724 1.49608 17.6484 1.49597C19.3196 1.49597 20.893 2.14878 22.0732 3.32898C23.2585 4.51431 23.9061 6.08698 23.9062 7.75769C23.9062 9.42897 23.2526 11.0022 22.0674 12.1874L12.9014 21.3534C12.6939 21.5605 12.3301 21.5583 12.1201 21.3553L2.94238 12.1766C1.7573 10.9914 1.10449 9.41909 1.10449 7.74792ZM-0.150391 7.74792C-0.150388 5.74046 0.630868 3.85143 2.05078 2.43152C3.4705 1.0171 5.35402 0.236206 7.35645 0.236206C9.28479 0.236257 11.1037 0.960983 12.5049 2.27625C13.9013 0.965882 15.7155 0.246948 17.6387 0.246948C19.6462 0.246951 21.5294 1.02744 22.9492 2.44714C24.3691 3.86706 25.1504 5.75608 25.1504 7.76355L25.1396 8.13757C25.0444 9.99998 24.2755 11.743 22.9443 13.0741L13.7832 22.2352C13.4494 22.5689 12.9829 22.7635 12.5098 22.7635C12.0316 22.7634 11.5753 22.5742 11.2363 22.2352L2.05566 13.0594L2.26758 12.8466L11.4492 22.0233C11.732 22.3059 12.1116 22.4636 12.5098 22.4637C12.903 22.4637 13.2934 22.301 13.5713 22.0233L22.7324 12.8622C24.0958 11.4988 24.8444 9.68651 24.8496 7.76355L24.8408 7.4032C24.7536 5.61039 24.0156 3.93737 22.7373 2.65906C21.3737 1.29559 19.5665 0.546755 17.6387 0.546753C15.7456 0.546753 13.9628 1.27122 12.6094 2.58972L12.5049 2.48132L12.4004 2.58972C11.0418 1.26605 9.25435 0.53704 7.35645 0.536987C5.43363 0.536987 3.62639 1.28575 2.2627 2.64441C0.89924 4.00792 0.150393 5.81989 0.150391 7.74792C0.150391 9.67054 0.903899 11.4828 2.26758 12.8466L2.05566 13.0594C0.63605 11.6398 -0.150391 9.75057 -0.150391 7.74792ZM12.6094 2.58972L12.5049 2.69128L12.4004 2.58972L12.5049 2.48132L12.6094 2.58972ZM1.4043 7.74792C1.4043 9.33919 2.02523 10.8355 3.1543 11.9647L12.3291 21.1395L12.3682 21.1698C12.4672 21.2301 12.6121 21.2185 12.6895 21.1415L21.8555 11.9755C22.9847 10.8463 23.6064 9.34906 23.6064 7.75769C23.6063 6.16617 22.9892 4.66977 21.8604 3.54089C20.7363 2.41705 19.2397 1.79578 17.6484 1.79578C16.0521 1.79589 14.5558 2.41769 13.4268 3.54675L13.0596 3.91296C12.9139 4.05867 12.7122 4.1405 12.5098 4.1405C12.3017 4.14039 12.1061 4.05811 11.9609 3.91296L11.583 3.53601C10.4539 2.40704 8.95272 1.78601 7.36133 1.78601C5.76987 1.78601 4.27346 2.40708 3.14941 3.53113C2.02532 4.66037 1.4043 6.15669 1.4043 7.74792Z" fill="currentColor"></path>
  </symbol>
  <symbol id="cloud-rain-icon" xmlns="http://www.w3.org/2000/svg" fill="none" viewBox="0 0 24 24">
  	<path stroke="currentColor" stroke-linecap="round" stroke-linejoin="round" stroke-width="2" d="M4 14.752c-.63-.875-1-1.946-1-3.103C3 9.2 4.8 6.938 7.5 6.5 8.347 4.486 10.351 3 12.69 3c2.994 0 5.442 2.323 5.61 5.25 1.59.695 2.7 2.4 2.7 4.247a4.486 4.486 0 0 1-1 2.83M12.5 13l-2 8.002m-2-9.002-2 8.002M16.5 12l-2 8.001"/>
  </symbol>
</svg>